<svg width="16" height="16" viewBox="0 0 16 16" fill="none" xmlns="http://www.w3.org/2000/svg">
<path d="M0 8C0 3.58172 3.58172 0 8 0C12.4183 0 16 3.58172 16 8C16 12.4183 12.4183 16 8 16C3.58172 16 0 12.4183 0 8Z" fill="#424242"/>
<path d="M5 13.5049V9.42718L7.80851 11.3301V15L5 13.5049Z" fill="#F6F6F6"/>
<path d="M11 13.5049V9.42718L8.19149 11.3301V15L11 13.5049Z" fill="#F6F6F6"/>
<path fill-rule="evenodd" clip-rule="evenodd" d="M10.8723 9.15534L8.57447 7.66019C9.17021 6.88997 10.3617 4.99612 10.3617 3.58252C10.3617 1.81553 9.36864 0.999973 8.06383 1C6.65957 1.00003 5.6383 1.54369 5.6383 3.58252C5.6383 5.21359 6.65957 6.98058 7.17021 7.66019L5.12766 9.15534L8.06383 11.0583L10.8723 9.15534ZM9.21277 3.71842C9.24801 3.00528 8.73361 2.39676 8.06383 2.35922C7.35977 2.31977 6.75019 2.96878 6.78723 3.71842C6.82248 4.43156 7.39404 4.97925 8.06383 4.94172C8.69749 4.90621 9.17942 4.3931 9.21277 3.71842Z" fill="#F6F6F6"/>
</svg>
