<svg xmlns="http://www.w3.org/2000/svg" version="1.1" xmlns:xlink="http://www.w3.org/1999/xlink" width="42" height="76"><svg xmlns="http://www.w3.org/2000/svg" version="1.1" xmlns:xlink="http://www.w3.org/1999/xlink" width="42" height="76"><svg width="42" height="76" viewBox="0 0 42 76" fill="none" xmlns="http://www.w3.org/2000/svg">
<path d="M12.3973 36.145L4.08333 40.8958C3.45055 41.2612 2.92496 41.7865 2.55929 42.4191C2.19363 43.0517 2.00075 43.7693 2 44.5V61.1667C2.00075 61.8973 2.19363 62.615 2.55929 63.2476C2.92496 63.8802 3.45055 64.4055 4.08333 64.7708L18.6667 73.1042C19.3001 73.4699 20.0186 73.6624 20.75 73.6624M12.3973 36.145C15.1712 39.3729 17.9478 41.9095 19.4979 43.2479C19.8589 43.5194 20.2983 43.6661 20.75 43.6661C21.2017 43.6661 21.6411 43.5194 22.0021 43.2479C23.5522 41.9095 26.3288 39.3729 29.1027 36.145M12.3973 36.145C8.23716 31.3038 4.08333 24.9076 4.08333 18.6667C4.08333 14.2464 5.83928 10.0072 8.96489 6.88155C12.0905 3.75595 16.3297 2 20.75 2C25.1703 2 29.4095 3.75595 32.5351 6.88155C35.6607 10.0072 37.4167 14.2464 37.4167 18.6667C37.4167 24.9076 33.2628 31.3038 29.1027 36.145M20.75 73.6624C21.4814 73.6624 22.1999 73.4699 22.8333 73.1042L37.4167 64.7708C38.0494 64.4055 38.575 63.8802 38.9407 63.2476C39.3064 62.615 39.4993 61.8973 39.5 61.1667V44.5C39.4993 43.7693 39.3064 43.0517 38.9407 42.4191C38.575 41.7865 38.0494 41.2612 37.4167 40.8958L29.1027 36.145M20.75 73.6624V52.8333M20.75 52.8333L2.60417 42.4167M20.75 52.8333L38.8958 42.4167M27 18.6667C27 22.1184 24.2018 24.9167 20.75 24.9167C17.2982 24.9167 14.5 22.1184 14.5 18.6667C14.5 15.2149 17.2982 12.4167 20.75 12.4167C24.2018 12.4167 27 15.2149 27 18.6667Z" stroke="#0C0A09" stroke-width="4" stroke-linecap="round" stroke-linejoin="round"></path>
</svg></svg><style>@media (prefers-color-scheme: light) { :root { filter: none; } }
@media (prefers-color-scheme: dark) { :root { filter: invert(100%); } }
</style></svg>